<?xml version="1.0" encoding="utf-8"?>
<!-- Generator: Adobe Illustrator 16.0.0, SVG Export Plug-In . SVG Version: 6.00 Build 0)  -->
<!DOCTYPE svg PUBLIC "-//W3C//DTD SVG 1.1//EN" "http://www.w3.org/Graphics/SVG/1.1/DTD/svg11.dtd">
<svg version="1.1" id="Layer_1" xmlns="http://www.w3.org/2000/svg" xmlns:xlink="http://www.w3.org/1999/xlink" x="0px" y="0px"
	 width="483px" height="305px" viewBox="0 0 483 305" enable-background="new 0 0 483 305" xml:space="preserve">
<path fill="#0F0F0F" d="M0,0h483v305H0V0z"/>
<path fill="#7DB22F" d="M238.01,48.01c3.98-3.79,9.35-5.39,14.59-6.52c0.01,6.29-1.129,12.93-5.25,17.91
	c-4.189,5.56-10.879,9.54-17.97,9.45C228.87,61,231.89,53.06,238.01,48.01z"/>
<path fill="#7DB22F" d="M188,82.27c5.08-8.16,14.07-14.63,24.01-14.17c6.48-0.36,12.23,3.02,18.36,4.44
	c6.59,1.44,12.17-3.34,18.5-4.05c6.01-0.771,12.601-0.61,17.88,2.72c3.58,2.04,6.55,4.93,9.4,7.86c-1.541,1.09-3.08,2.17-4.621,3.26
	C243.689,82.33,215.84,82.45,188,82.27z"/>
<path fill="#FFC60D" d="M187.74,82.27H188c27.84,0.18,55.689,0.06,83.529,0.06c-4.219,3.71-6.719,8.8-7.939,14.22h-0.14
	c-26.72-0.23-53.43-0.02-80.15-0.11C184.17,91.56,185.4,86.68,187.74,82.27z"/>
<path fill="#FE8A1A" d="M183.3,96.44c26.72,0.09,53.43-0.12,80.15,0.11c-0.341,4.8,0.34,9.57,1.84,14.13
	c-27.2-0.22-54.4-0.06-81.6-0.08C183.17,105.9,183.19,101.17,183.3,96.44z"/>
<path fill="#DF2D21" d="M183.69,110.6c27.2,0.02,54.4-0.14,81.6,0.08c2.92,6.24,8.46,10.56,14.36,13.8
	c-0.221,0-0.67,0.02-0.891,0.03c-30.4,0.36-60.81,0.21-91.21,0.07C185.29,120.27,185.04,115.23,183.69,110.6z"/>
<path fill="#A7286B" d="M187.55,124.58c30.4,0.14,60.81,0.29,91.21-0.07c-1.88,5.35-4.8,10.21-7.98,14.88
	c-25.129-0.25-50.25,0.08-75.369-0.16C191.74,134.99,189.88,129.59,187.55,124.58z"/>
<path fill="#00A2D5" d="M195.41,139.23c25.12,0.24,50.24-0.09,75.369,0.16c-4.389,6.17-9.59,13.28-17.68,14.299
	c-5.89,0.86-10.27-4.37-16-4.489c-4.46-0.29-9.18-0.47-13.3,1.59c-3.93,1.85-8.28,3.81-12.71,2.63
	C204.01,151.36,199.07,145.3,195.41,139.23z"/>
<path display="none" fill="#FFFFFF" d="M228.48,209.811c3.49-1.391,6.75-3.281,10.2-4.73c-0.14,14.641-0.13,29.3-0.1,43.949
	c-0.07,1.801,0.31,3.561,0.79,5.281c0.77-0.621,2.32-1.881,3.09-2.5c-0.04,0.77-0.12,2.31-0.16,3.08c-2.88,1.5-5.86,2.779-8.71,4.33
	c-0.44-1.25-0.88-2.511-1.31-3.771c-2.33,2.021-5.07,3.81-8.3,3.729c-7.22-0.26-13.13-7.08-13.39-14.1
	c-0.36-5.49-0.25-11.59,3.63-15.93c3.67-5.86,11.78-7.26,17.87-4.631c0.06-4.189,0.13-8.39-0.27-12.569
	C230.68,211.279,229.56,210.57,228.48,209.811z"/>
<path display="none" fill="#FFFFFF" d="M266.641,212.82c2.17-4.561,6.959-8.43,12.27-7.471c1.92,0.16,3.01,1.92,4.199,3.2
	c-0.989,1.8-2.01,3.591-3.119,5.33c-1.811-2.069-3.44-4.28-5.26-6.34c-4.811,4.229-3.33,11.37-3.551,17.069
	c2.5,0.091,5.01,0.101,7.521,0.131c-0.021,0.93-0.03,1.859-0.04,2.789c-2.51,0.031-5.02,0.021-7.52,0.061
	c-0.221,8.891-0.281,17.801,0.049,26.689c1.781,0.58,3.61,1.031,5.381,1.671c-0.2,0.43-0.61,1.29-0.811,1.72
	c-4.99-0.05-10-0.561-14.97,0.21c-0.21-0.67-0.42-1.34-0.62-2c1.49-0.569,3.21-0.78,4.49-1.81c0.75-8.721,0.199-17.51,0.29-26.25
	c-1.2-0.18-2.41-0.34-3.61-0.5c-0.061-0.35-0.16-1.061-0.22-1.41c1.26-0.689,2.76-1.08,3.81-2.11
	C265.77,220.189,265.07,216.27,266.641,212.82z"/>
<path display="none" fill="#FFFFFF" d="M289.41,208.35c2.55-2.939,7.07-3.99,10.619-2.35c3.261,1.561,1.441,6.38-1.109,7.55
	c-1.779-1.84-3.15-4.03-4.779-5.989c-5.271,3.949-2.961,11.439-3.49,17.09c2.42,0.039,4.84,0.05,7.26,0.08
	c-0.02,0.699-0.061,2.1-0.07,2.799c-2.42,0.031-4.84,0.041-7.25,0.101c0.02,8.94-0.17,17.899,0.12,26.841
	c1.681,0.459,3.37,0.869,5.069,1.239c-0.059,0.511-0.199,1.54-0.26,2.05c-5.299-0.31-10.59-0.47-15.879,0.03
	c-0.021-0.49-0.051-1.47-0.07-1.96c1.55-0.79,4.41-0.53,4.47-2.84c0.431-8.34,0.05-16.711,0.181-25.061
	c-1.271-0.529-3.4,0-3.74-1.77c1.17-0.84,2.459-1.51,3.629-2.35C285.04,218.51,284.49,211.87,289.41,208.35z"/>
<path display="none" fill="#FFFFFF" d="M250.37,210.27c1.46-1.27,3.87,0.28,4.31,1.961c1.37,2.379-0.3,5.18-2.479,6.359
	C248.09,218.561,246.98,212.311,250.37,210.27z"/>
<path display="none" fill="#FFFFFF" d="M414.94,220.68c1.119-1.369,1.85-3.33,3.72-3.81c0.42,2.55,0.34,5.149,0.439,7.739
	c2.381,0.08,4.761,0.111,7.15,0.141c0.01,0.76,0.03,2.29,0.04,3.061c-2.4,0.129-4.8,0.199-7.2,0.33
	c-0.21,6.959-0.13,13.93-0.1,20.889c-0.141,2.181,0.81,4.16,1.91,5.98c2.159-0.82,4.26-1.77,6.409-2.619
	c-1.1,4.02-5.17,6.83-9.27,6.75c-3.55-0.15-5.33-3.99-5.58-7.091c-0.42-7.829,0.22-15.69,0.15-23.53c-1.44-0.49-2.86-0.97-4.24-1.56
	C410.66,224.99,413.25,223.25,414.94,220.68z"/>
<path display="none" fill="#FFFFFF" d="M244.77,229.25c3.33-2.109,6.541-4.359,9.66-6.76c0.67,10.16-0.029,20.359,0.37,30.52
	c-0.239,2.381,2.69,2.17,4.19,2.9c-0.1,0.49-0.32,1.449-0.42,1.93c-4.291-0.449-8.59-0.5-12.881-0.17
	c-0.379-0.35-1.14-1.04-1.52-1.391c1.301-0.699,2.62-1.35,3.93-2.01c-0.109-7.129,0.291-14.279-0.149-21.399
	C247.971,230.99,245.84,230.38,244.77,229.25z"/>
<path display="none" fill="#FFFFFF" d="M301.279,229.54c4.24-7.54,16.561-8.66,21.73-1.55c1.91,2.24,2.42,5.24,2.351,8.109
	c-6.7,0.641-13.45,0.121-20.16,0.34c0.2,4.141-0.25,8.601,1.729,12.41c2.03,2.601,4.49,5.7,8.13,5.68
	c4.221,0.561,7.07-3.01,10.341-4.969c-0.591,4.83-5.301,7.609-9.49,9.06c-6.49,2.37-14.32-2.021-16.02-8.62
	C297.35,243.4,297.939,235.75,301.279,229.54z"/>
<path display="none" fill="#FFFFFF" d="M327.33,229.52c3.24-2.129,6.3-4.52,9.35-6.91c0.19,1.82,0.32,3.641,0.44,5.461
	c2.28-2.07,4.38-5.1,7.8-5.07c1.69,0.46,2.95,1.74,4.311,2.77c0.109,0.961,0.319,2.871,0.42,3.83c-1.15,1.041-2.351,2.021-3.58,2.94
	c-2.21-1.181-4.28-2.58-6.24-4.11c-0.53,0.45-1.59,1.35-2.12,1.801c-0.77,7.949-0.64,16.049-0.17,24.01
	c1.63,0.699,3.37,1.08,5.09,1.52c-0.04,0.52-0.14,1.551-0.18,2.07c-5.28-0.33-10.561-0.57-15.83-0.04
	c-0.07-0.511-0.2-1.55-0.271-2.06c1.45-0.36,2.9-0.73,4.351-1.101c0.08-7.229,0.09-14.47,0.03-21.7
	C331.24,230.73,328.64,230.48,327.33,229.52z"/>
<path display="none" fill="#FFFFFF" d="M352.29,229.35c4.12-6.699,14.49-8.32,20.28-2.869c2.529,2.369,4.399,6.459,2.63,9.729
	c-6.431,0.5-12.891-0.04-19.33,0.21c-0.19,5.109-0.03,10.971,3.939,14.76c2.24,3.1,6.54,4.25,10.04,2.75
	c2.24-1.13,4.061-2.91,6.12-4.31c-0.109,4.739-4.92,7.33-8.77,8.88c-5.82,2.35-12.46-0.9-15.55-5.98
	C348.6,245.25,348.24,236.279,352.29,229.35z"/>
<path display="none" fill="#FFFFFF" d="M376.87,229.68c3.07-2.4,6.37-4.49,9.5-6.789c0.06,1.979,0.07,3.969,0.08,5.959
	c2.479-2.76,5.6-5.699,9.59-5.619c3.09-0.24,6.12,1.379,8,3.77c2.5,3.85,1.729,8.68,1.94,13.029c0.21,4.861-0.54,9.83,0.399,14.611
	c1.55,0.59,3.17,0.959,4.76,1.469c-0.54,0.42-1.63,1.281-2.17,1.701c-4.22-0.461-8.45-0.521-12.66,0.109
	c-0.1-0.609-0.319-1.811-0.43-2.42c0.9-0.109,2.69-0.32,3.59-0.42c0.41-6.03,0.261-12.07,0.271-18.1
	c0.02-3.07-0.53-6.801-3.55-8.381c-3.79-2.629-9.21,0.98-9.23,5.32c-0.41,6.811-0.09,13.65-0.15,20.48
	c1.4,0.47,2.811,0.92,4.24,1.359c-0.08,0.52-0.229,1.57-0.3,2.09c-4.61-0.5-9.23-0.449-13.84-0.05
	c-0.01-0.489-0.021-1.489-0.03-1.989c1.21-0.381,2.4-0.83,3.57-1.34c0.25-7.121,0.12-14.25,0.08-21.371
	C380.9,230.88,378.24,230.641,376.87,229.68z"/>
<path display="none" fill="#0F0F0F" d="M310.48,225.43c1.689-0.39,3.449-0.209,5.17-0.209c2.08,2.02,4.109,5.549,1.239,7.889
	c-3.56,1.601-7.64,0.891-11.419,1.091C305.73,230.721,307.2,227.08,310.48,225.43z"/>
<path display="none" fill="#0F0F0F" d="M356.16,234.061c0.6-3.931,2.96-9.181,7.649-8.99c3.75-0.45,7.15,4.31,4.671,7.5
	C364.9,235,360.22,233.859,356.16,234.061z"/>
<path display="none" fill="#0F0F0F" d="M222.54,226.65c2.6-1.86,8.14-2.291,8.73,1.82c1.4,5.739,0.65,11.709,0.86,17.559
	c-0.15,2.961,0.48,6.381-1.4,8.931c-2.8,0.931-6.05,0.5-8.59-0.97C214.84,246.859,215.84,233.779,222.54,226.65z"/>
<rect x="201" y="193" display="none" fill="#0F0F0F" width="245" height="76"/>
<g id="think">
	<path fill="#FFFFFF" d="M204.897,209.891c3.41-1.471,6.73-3.16,10.08-4.781c0.66,2.531,0.15,5.16,0.16,7.74
		c-0.09,8.7,0.04,17.41-0.11,26.11c3.73-3.61,7.62-7.08,10.98-11.06c-1.24-0.65-2.48-1.271-3.73-1.871l0.21-1.51
		c4.05,0.521,8.15,0.61,12.22,0.15l0.23,1.32c-5.52,2.18-9.43,6.779-13.62,10.75c3.24,5.09,6.52,10.15,9.76,15.24
		c1.45,2.5,4.24,3.56,6.41,5.299c-5.16,0.761-10.43-0.139-15.63,0.48c-0.35-0.439-1.06-1.34-1.41-1.779
		c0.98-0.25,2.94-0.75,3.92-0.99c-2.54-5.12-5.57-10.07-8.92-14.69c-0.56,4.22-0.39,8.5-0.3,12.75c-0.26,2.14,2.48,2.021,3.77,2.83
		c-0.08,0.479-0.25,1.45-0.34,1.931c-6.17-0.92-12.37,0.319-18.56-0.301c-2.93-0.34-5.84,0.27-8.77,0.25
		c-1.38-2.88,3.61-2.17,3.15-4.859c-0.15-7.61,0.65-15.311-0.9-22.82c-2.16-1.43-4.73-3.1-7.42-2c-3.16,1.13-4.2,4.82-4.17,7.859
		c0.01,6.131,0.04,12.261,0.05,18.391c1.56,0.62,3.12,1.199,4.69,1.811c-0.42,0.389-1.26,1.18-1.68,1.569
		c-4.24-0.181-8.49-0.431-12.72,0.08c-0.07-0.5-0.2-1.511-0.27-2.021c1.12-0.459,2.24-0.93,3.35-1.41
		c0-7.129,0.13-14.279-0.04-21.409c0.01-1.761-2.11-2.421-3.09-3.601c3.14-1.89,5.84-4.92,9.17-6.209c0.23,1.92,0.25,3.84,0.36,5.77
		c1.98-3.24,5.47-5.59,9.32-5.721c2.69-0.18,4.99,1.34,7.28,2.49c4.9,9.141,1.25,19.791,3.21,29.551c2.33,0.02,4.89,0.58,7.01-0.701
		c0.56-13.489,0.13-27.029,0.26-40.539C209.377,211.5,206.397,210.99,204.897,209.891z"/>
	<path fill="#FFFFFF" d="M123.067,209.8c3.49-1.54,6.9-3.26,10.31-4.989c-0.02,8.09-0.15,16.18-0.05,24.27
		c0.56-1.051,1.13-2.09,1.68-3.141c3.07-1.869,6.73-3.859,10.35-2.119c3.72,0.91,5.23,4.76,5.98,8.13
		c0.55,6.979-0.02,13.989,0.28,20.979c-0.22,1.891,2.11,2.16,3.26,3.08c-0.04,0.43-0.12,1.301-0.16,1.74
		c-4.62-0.49-9.25-0.29-13.87,0.01c-0.03-0.49-0.09-1.47-0.12-1.96c1.46-0.68,4.19-0.46,4.12-2.67c0.3-6.06,0.25-12.149,0-18.22
		c-0.31-2.57-0.67-6.21-3.76-6.881c-3.26-1.379-7.63,1.261-7.6,4.91c-0.32,7.271-0.33,14.59,0.07,21.871
		c1.49,0.449,4.79,0.43,3.34,2.89c-4.73-0.261-9.46-0.47-14.19,0.079c-0.08-0.469-0.23-1.409-0.31-1.869
		c1.45-0.77,4.41-0.689,4.27-2.93c0.03-12.98,0.08-25.961-0.02-38.931C126.907,211.76,124.517,210.96,123.067,209.8z"/>
	<path fill="#FFFFFF" d="M90.427,207.1c1.58-0.279,1.63,1.961,2.49,2.78c8.81,0.14,17.63,0.261,26.43-0.021
		c0.94-1.25,1.92-2.479,2.95-3.649c0.31,4.7,0.17,9.45-0.47,14.11c-0.45,0.33-1.33,1-1.78,1.34c-0.69-2.23-1.22-4.5-1.64-6.79
		c-2.74-2.21-6.29-2.46-9.68-2.36c-0.15,13.98-0.22,27.971,0.04,41.95c1.93,0.47,3.87,0.89,5.79,1.38
		c-1.02,2.471-3.59,1.49-5.51,1.48c-4.04-0.521-8.1,0.05-12.14,0.26c-0.24-0.471-0.71-1.41-0.95-1.87
		c1.84-0.399,3.67-0.819,5.47-1.34c0.62-12.11,0.08-24.261,0.29-36.39c-0.16-1.75,0.38-3.76-0.63-5.32
		c-2.19-0.221-4.57-0.21-6.5,1.01c-3.02,2.02-4.04,5.88-7.13,7.87C88.267,216.7,88.727,211.721,90.427,207.1z"/>
	<path fill="#FFFFFF" d="M161.717,210.62c2.96-2.649,6.51,2.33,4.96,5.149c-0.59,1.971-2.45,2.78-4.37,2.871
		C160.347,216.37,159.077,212.939,161.717,210.62z"/>
	<path fill="#FFFFFF" d="M156.777,229.37c3.27-2.17,6.45-4.47,9.55-6.87c0.57,10.641-0.02,21.3,0.32,31.939
		c1.37,0.48,2.75,0.931,4.14,1.371c-0.08,0.52-0.25,1.549-0.33,2.069c-4.35-0.51-8.72-0.44-13.08-0.25l-1.18-1.81
		c0.87-0.2,2.6-0.59,3.46-0.78c0.4-7.38,0.38-14.79,0.12-22.17C159.947,230.99,157.887,230.391,156.777,229.37z"/>
</g>
<path id="dot" fill="#FFFFFF" d="M373.697,250.62c4.66-2.31,7.18,5.31,3.119,7.44C372.576,259.91,370.248,252.85,373.697,250.62z"/>
<text transform="matrix(1 0 0 1 248.0566 259.2783)" fill="#FFFFFF" font-family="'AppleGaramond'" font-size="82">SVG</text>
</svg>
