<?xml version="1.0" encoding="utf-8"?>
<!-- Generator: Adobe Illustrator 16.0.0, SVG Export Plug-In . SVG Version: 6.00 Build 0)  -->
<!DOCTYPE svg PUBLIC "-//W3C//DTD SVG 1.1//EN" "http://www.w3.org/Graphics/SVG/1.1/DTD/svg11.dtd">
<svg version="1.1" id="Layer_1" xmlns="http://www.w3.org/2000/svg" xmlns:xlink="http://www.w3.org/1999/xlink" x="0px" y="0px"
	 width="68px" height="68px" viewBox="34 34 68 68" enable-background="new 34 34 68 68" xml:space="preserve">
<g transform="rotate(-45 68 68) translate(-27 -27)">
	
		<rect x="46.958" y="46.958" fill="none" stroke="#000000" stroke-width="1.0114" stroke-opacity="0.25" width="96.084" height="96.084"/>
	
		<rect x="48.981" y="48.981" fill="none" stroke="#000000" stroke-width="1.0114" stroke-opacity="0.25" width="92.037" height="92.037"/>
	
		<rect x="51.003" y="51.003" fill="none" stroke="#000000" stroke-width="1.0114" stroke-opacity="0.25" width="87.994" height="87.994"/>
	
		<rect x="53.026" y="53.026" fill="none" stroke="#000000" stroke-width="1.0114" stroke-opacity="0.25" width="83.948" height="83.947"/>
	
		<rect x="55.049" y="55.049" fill="none" stroke="#000000" stroke-width="1.0114" stroke-opacity="0.25" width="79.902" height="79.903"/>
	
		<rect x="57.072" y="57.072" fill="none" stroke="#000000" stroke-width="1.0114" stroke-opacity="0.25" width="75.856" height="75.855"/>
	
		<rect x="59.095" y="59.095" fill="none" stroke="#000000" stroke-width="1.0114" stroke-opacity="0.25" width="71.81" height="71.811"/>
	
		<rect x="61.117" y="61.117" fill="none" stroke="#000000" stroke-width="1.0114" stroke-opacity="0.25" width="67.765" height="67.765"/>
	
		<rect x="63.141" y="63.14" fill="none" stroke="#000000" stroke-width="1.0114" stroke-opacity="0.25" width="63.719" height="63.719"/>
	
		<rect x="65.163" y="65.163" fill="none" stroke="#000000" stroke-width="1.0114" stroke-opacity="0.25" width="59.674" height="59.674"/>
	
		<rect x="67.186" y="67.186" fill="none" stroke="#000000" stroke-width="1.0114" stroke-opacity="0.25" width="55.627" height="55.627"/>
	
		<rect x="69.209" y="69.209" fill="none" stroke="#000000" stroke-width="1.0114" stroke-opacity="0.25" width="51.582" height="51.583"/>
	
		<rect x="71.232" y="71.232" fill="none" stroke="#000000" stroke-width="1.0114" stroke-opacity="0.25" width="47.536" height="47.537"/>
	
		<rect x="73.254" y="73.254" fill="none" stroke="#000000" stroke-width="1.0114" stroke-opacity="0.25" width="43.491" height="43.49"/>
	
		<rect x="75.278" y="75.278" fill="none" stroke="#000000" stroke-width="1.0114" stroke-opacity="0.25" width="39.445" height="39.446"/>
	
		<rect x="77.301" y="77.3" fill="none" stroke="#000000" stroke-width="1.0114" stroke-opacity="0.25" width="35.399" height="35.4"/>
	
		<rect x="79.323" y="79.323" fill="none" stroke="#000000" stroke-width="1.0114" stroke-opacity="0.25" width="31.354" height="31.353"/>
	
		<rect x="81.347" y="81.346" fill="none" stroke="#000000" stroke-width="1.0114" stroke-opacity="0.25" width="27.307" height="27.308"/>
	
		<rect x="83.369" y="83.369" fill="none" stroke="#000000" stroke-width="1.0114" stroke-opacity="0.25" width="23.263" height="23.263"/>
	
		<rect x="85.391" y="85.392" fill="none" stroke="#000000" stroke-width="1.0114" stroke-opacity="0.25" width="19.217" height="19.217"/>
	
		<rect x="87.414" y="87.414" fill="none" stroke="#000000" stroke-width="1.0114" stroke-opacity="0.25" width="15.172" height="15.171"/>
	
		<rect x="89.438" y="89.438" fill="none" stroke="#000000" stroke-width="1.0114" stroke-opacity="0.25" width="11.124" height="11.125"/>
	
		<rect x="91.459" y="91.46" fill="none" stroke="#000000" stroke-width="1.0114" stroke-opacity="0.25" width="7.081" height="7.08"/>
	
		<rect x="93.481" y="93.482" fill="none" stroke="#000000" stroke-width="1.0114" stroke-opacity="0.25" width="3.035" height="3.034"/>
</g>
</svg>
