<?xml version="1.0" encoding="utf-8"?>
<!DOCTYPE svg PUBLIC "-//W3C//DTD SVG 1.1//EN" "http://www.w3.org/Graphics/SVG/1.1/DTD/svg11.dtd">
<svg version="1.1" xmlns="http://www.w3.org/2000/svg" xmlns:xlink="http://www.w3.org/1999/xlink" x="0px" y="0px" width="232px" height="225.333px" viewBox="0 0 232 225.333" enable-background="new 0 0 232 225.333" xml:space="preserve" fill="none" stroke="#fff" stroke-width="5" stroke-linecap="square" stroke-miterlimit="10">
  <line x1="116.139" y1="8.305" x2="12.25" y2="112.194"/>
  <line x1="12.25" y1="112.194" x2="117.514" y2="217.458"/>
  <line x1="117.514" y1="217.458" x2="221" y2="113.972"/>
  <line x1="221" y1="113.972" x2="131.277" y2="24.25"/>
  <line x1="131.277" y1="24.25" x2="41.819" y2="113.708"/>
  <line x1="41.819" y1="113.708" x2="116.139" y2="188.028"/>
  <line x1="117.611" y1="186.222" x2="189.722" y2="114.111"/>
  <line x1="189.722" y1="114.111" x2="130.166" y2="54.555"/>
  <line x1="130.166" y1="54.555" x2="69.859" y2="114.863"/>
  <line x1="69.859" y1="114.863" x2="114.082" y2="159.084"/>
  <line x1="115.262" y1="157.889" x2="158.145" y2="115.006"/>
  <line x1="158.145" y1="115.006" x2="128.818" y2="85.68"/>
  <line x1="128.818" y1="85.68" x2="97.708" y2="116.791"/>
  <line x1="97.708" y1="116.791" x2="112.146" y2="131.228"/>
  <line x1="112.146" y1="131.228" x2="128.929" y2="114.444"/>
</svg>